<svg xmlns="http://www.w3.org/2000/svg" viewBox="-10 -10 120 80" font-size="4">
  <g class="washes">
    <g id="sail">
      <path fill="#b9665f" d="M5.3594 49.6999C6.4336 44.8659 5.8438 41.7695 8.6716 39.6738C10.686 38.181 13.8729 40.4497 16.1912 39.4948C19.0016 38.3372 19.8399 33.8484 22.8155 33.2285C25.3937 32.6914 27.6126 35.8639 30.2456 35.914C33.8781 35.9831 37.0056 32.3454 40.6297 32.6019C43.5718 32.8101 45.6562 36.2239 48.5969 36.4512C51.8626 36.7035 54.7515 33.1405 57.9964 33.5866C61.8915 34.1221 64.0426 39.3728 67.9329 39.9424C70.7272 40.3515 73.276 37.2719 76.0791 37.6149C79.4957 38.033 81.6367 42.1905 85.031 42.7622C87.2879 43.1424 89.513 41.1365 91.7761 41.4782C93.1199 41.6812 95.3776 43.3893 95.3776 43.3893C75.2491 50.3671 56.6587 45.1324 40.1874 44.8125C23.7161 44.4925 16.2088 46.764 5.3594 49.6999Z"/>
    </g>
    <g id="body">
      <path fill="#e79792" d="M25.5011 66.5294C25.7697 58.7413 19.7719 52.5645 11.1781 57.3985C2.5843 62.2325 1.0625 59.9946 0.2568 58.1147C-0.5488 56.2348 0.2018 52.3214 7.494 47.5769C13.3071 43.7949 23.7535 41.5136 32.1144 41.7085C41.4325 41.9256 54.365 43.831 61.4876 45.1345C75.4438 47.6886 88.2513 45.3181 96.526 42.9875C92.2348 45.8999 83.6425 51.4859 65.7595 53.8019C52.9066 55.4664 56.0144 63.2074 55.7315 67.3566L50.4447 67.5686C49.3188 63.0079 48.9549 60.0846 40.2778 59.2967C31.6008 58.5087 31.6402 62.4631 31.3198 66.977Z"/>
    </g>
  </g>
  <g class="ink" fill="none" stroke="#2c2620" stroke-width="0.5">
    <path d="M5.3594 49.6999C6.4336 44.8659 5.8438 41.7695 8.6716 39.6738C10.686 38.181 13.8729 40.4497 16.1912 39.4948C19.0016 38.3372 19.8399 33.8484 22.8155 33.2285C25.3937 32.6914 27.6126 35.8639 30.2456 35.914C33.8781 35.9831 37.0056 32.3454 40.6297 32.6019C43.5718 32.8101 45.6562 36.2239 48.5969 36.4512C51.8626 36.7035 54.7515 33.1405 57.9964 33.5866C61.8915 34.1221 64.0426 39.3728 67.9329 39.9424C70.7272 40.3515 73.276 37.2719 76.0791 37.6149C79.4957 38.033 81.6367 42.1905 85.031 42.7622C87.2879 43.1424 89.513 41.1365 91.7761 41.4782C93.1199 41.6812 95.3776 43.3893 95.3776 43.3893"/>
    <path d="M25.5011 66.5294C25.7697 58.7413 19.7719 52.5645 11.1781 57.3985C2.5843 62.2325 1.0625 59.9946 0.2568 58.1147C-0.5488 56.2348 0.2018 52.3214 7.494 47.5769C13.3071 43.7949 23.7535 41.5136 32.1144 41.7085C41.4325 41.9256 54.365 43.831 61.4876 45.1345C75.4438 47.6886 88.2513 45.3181 96.526 42.9875C92.2348 45.8999 83.6425 51.4859 65.7595 53.8019C52.9066 55.4664 56.0144 63.2074 55.7315 67.3566L50.4447 67.5686C49.3188 63.0079 48.9549 60.0846 40.2778 59.2967C31.6008 58.5087 31.6402 62.4631 31.3198 66.977Z"/>
  </g>
  <g class="labels" fill="#41392c" font-family="Georgia, 'Times New Roman', serif" font-style="italic">
    <text x="66" y="28">crista dorsalis</text>
    <path class="leader" d="M70 29.5 L64 36" stroke="#41392c" stroke-width="0.3" fill="none"/>
  </g>
</svg>
